/* XPM */
static char * bath4_xpm[] = {
"48 108 20 1",
" 	c None",
".	c #3A3A50",
"+	c #EBE4F2",
"@	c #D8D0E0",
"#	c #C6BDD5",
"$	c #8B8BAB",
"%	c #F8F8F8",
"&	c #50A7E8",
"*	c #95E3E3",
"=	c #4995E3",
"-	c #46465E",
";	c #565972",
">	c #B2AECB",
",	c #4280DD",
"'	c #A79796",
")	c #989EBE",
"!	c #ED931E",
"~	c #FFF59A",
"{	c #F2B22B",
"]	c #F8D239",
"                ........                        ",
"                ........                        ",
"              ..++++++++..                      ",
"              ..++++++++..                      ",
"              ..@@@@@@@@..                      ",
"              ..@@@@@@@@..                      ",
"              ..##....##..                      ",
"              ..##....##..                      ",
"                ..@@@@..                        ",
"                ..@@@@..                        ",
"                ..++++..              ......    ",
"                ..++++..              ......    ",
"                ..####..            ..++++++..  ",
"                ..####..            ..++++++..  ",
"              ............        ..++##$$##++..",
"              ............        ..++##$$##++..",
"            ..++%%%%@@%%@@..      ..##$$##$$##..",
"            ..++%%%%@@%%@@..      ..##$$##$$##..",
"          ..++++%%%%@@%%@@@@..      ..##$$##..  ",
"          ..++++%%%%@@%%@@@@..      ..##$$##..  ",
"        ..@@................##..      ......    ",
"        ..@@................##..      ......    ",
"        ....$$++$$++$$++$$++....      ..##..    ",
"        ....$$++$$++$$++$$++....      ..##..    ",
"        ..++@@&&&&&&&&&&&&$$++..    ..++++++..  ",
"        ..++@@&&&&&&&&&&&&$$++..    ..++++++..  ",
"          ..%%&&&&&&&&&&&&%%..      ..######..  ",
"          ..%%&&&&&&&&&&&&%%..      ..######..  ",
"            %%%%%%%%%%%%%%%%          ..++..    ",
"            %%%%%%%%%%%%%%%%          ..++..    ",
"            **%%%%%%%%%%%%**          ..++..    ",
"            **%%%%%%%%%%%%**          ..++..    ",
"            ==************==          ..@@..    ",
"            ==************==          ..@@..    ",
"            ================        ....@@..    ",
"            ================        ....@@..    ",
"            ==&&==&&&&&&====  ......++@@..      ",
"            ==&&==&&&&&&====  ......++@@..      ",
"            ==&&==&&&&&&====..++++@@....        ",
"            ==&&==&&&&&&====..++++@@....        ",
"            ==&&==&&&&&&====@@......            ",
"            ==&&==&&&&&&====@@......            ",
"            ==&&&&&&==&&====..                  ",
"            ==&&&&&&==&&====..                  ",
"            ==&&&&&&==&&====                    ",
"            ==&&&&&&==&&====                    ",
"          --==&&==&&==&&====--                  ",
"          --==&&==&&==&&====--                  ",
"      ..--%%==&&==&&==&&&&==++--..              ",
"      ..--%%==&&==&&==&&&&==++--..              ",
"    ..%%%%;;%%&&==&&==&&&&%%;;++@@..            ",
"    ..%%%%;;%%&&==&&==&&&&%%;;++@@..            ",
"  ..%%%%;;++**%%==&&==&&%%**++;;++@@..          ",
"  ..%%%%;;++**%%==&&==&&%%**++;;++@@..          ",
"--%%%%;;++@@==%%%%%%%%%%%%==@@++;;++@@--        ",
"--%%%%;;++@@==%%%%%%%%%%%%==@@++;;++@@--        ",
"..%%;;##@@@@==**%%%%%%%%**==@@@@##;;@@..        ",
"..%%;;##@@@@==**%%%%%%%%**==@@@@##;;@@..        ",
"..%%--##@@@@====********====@@@@##--@@..        ",
"..%%--##@@@@====********====@@@@##--@@..        ",
"..%%-->>@@**==&&========&&==**@@>>--@@..        ",
"..%%-->>@@**==&&========&&==**@@>>--@@..        ",
"--%%;;>>**&&&&&&&&&&&&&&&&&&&&**>>;;@@--        ",
"--%%;;>>**&&&&&&&&&&&&&&&&&&&&**>>;;@@--        ",
"  --++;;&&&&&&&&&&&&&&&&&&&&&&&&;;@@--          ",
"  --++;;&&&&&&&&&&&&&&&&&&&&&&&&;;@@--          ",
"  ..++--&&&&================&&&&--@@..          ",
"  ..++--&&&&================&&&&--@@..          ",
"  ..++--&&====================&&--@@..          ",
"  ..++--&&====================&&--@@..          ",
"  ..++--&&====================&&--@@..          ",
"  ..++--&&====================&&--@@..          ",
"  ..++--&&====,,,,,,,,,,,,====&&--@@..          ",
"  ..++--&&====,,,,,,,,,,,,====&&--@@..          ",
"  ..++--====,,,,,,,,,,,,,,,,====--@@..          ",
"  ..++--====,,,,,,,,,,,,,,,,====--@@..          ",
"  ..++;;%%%%,,,,,,,,,,,,,,,,%%%%;;@@..          ",
"  ..++;;%%%%,,,,,,,,,,,,,,,,%%%%;;@@..          ",
"  --@@++;;--%%%%,,,,,,,,%%%%--;;++@@--          ",
"  --@@++;;--%%%%,,,,,,,,%%%%--;;++@@--          ",
"  ----@@++++;;;;----------;;++@@@@----          ",
"  ----@@++++;;;;----------;;++@@@@----          ",
"  ;;..----@@++++++++@@@@@@@@@@----..;;          ",
"  ;;..----@@++++++++@@@@@@@@@@----..;;          ",
"  ''..))))--;;;;;;;;;;-------->>))..''          ",
"  ''..))))--;;;;;;;;;;-------->>))..''          ",
"  ''..))>>########@@))@@@@))>>>>))..''          ",
"  ''..))>>########@@))@@@@))>>>>))..''          ",
"  ''..))##@@@@@@@@++))++++))>>>>))..''          ",
"  ''..))##@@@@@@@@++))++++))>>>>))..''          ",
"  ''..))##@@@@@@@@++))++++))>>>>))..''          ",
"  ''..))##@@@@@@@@++))++++))>>>>))..''          ",
"  ''..))##@@@@@@@@++))++++))>>>>))..''          ",
"  ''..))##@@@@@@@@++))++++))>>>>))..''          ",
"  ''--;;##@@@@@@@@++))++++))>>>>;;--''          ",
"  ''--;;##@@@@@@@@++))++++))>>>>;;--''          ",
"  ''..!!;;))>>>>>>>>>>>>>>>>));;!!..''          ",
"  ''..!!;;))>>>>>>>>>>>>>>>>));;!!..''          ",
"  ''..!!--....................--!!..''          ",
"  ''..!!--....................--!!..''          ",
"  --~~{{..''''''''''''''''''''..{{]]--          ",
"  --~~{{..''''''''''''''''''''..{{]]--          ",
"..]]{{..''''''''''''''''''''''''..{{{{..        ",
"..]]{{..''''''''''''''''''''''''..{{{{..        ",
"......''''''''''''''''''''''''''''......        ",
"......''''''''''''''''''''''''''''......        ",
"''''''''                        ''''''''        ",
"''''''''                        ''''''''        "};
