/* XPM */
static char * dead_xpm[] = {
"72 44 5 1",
" 	c None",
".	c #001C40",
"+	c #FFC579",
"@	c #FFFDF5",
"#	c #000000",
"....................................................................    ",
".++++++++++++++++++++++++++++++++++++++++++++++++++++++++++++++++++.    ",
".++++++++++++++++++++++++++++++++++++++++++++++++++++++++++++++++++.    ",
".++++++++++++++++++++++++++++++++++++++++++++++++++++++++++++++++++.    ",
".+++....................................................................",
".+++.+@@@@@@@@@@@@@@@@@@@@@@@@@@@@@@@@@@@@@@@@@@@@@@@@@@@@@@@@@@@@@@@@@.",
".+++.+@@@@@@@@@@@@@@@@@@@@@@@@@@@@@@@@@@@@@@@@@@@@@@@@@@@@@@@@@@@@@@@@@.",
".+++.+@@##@@##@@@@@@@@@@@@@@@@@@@@@@@@@@@@###@@@@@##@@@@@@@@@@@@@@###@@.",
".+++.+@@##@@##@@@@@@@@@@@@@@@@@@@@@@@@@@@@@##@@@@@##@@@@@@@@@@@@@@@##@@.",
".+++.+@@##@@##@@@@@@@@@@@@@@@@@@@@@@@@@@@@@##@@@@@@@@@@@@@@@@@@@@@@##@@.",
".+++.+@@##@@##@@#####@@##@@##@@@@@@@@@@@@####@@@@###@@@@#####@@@@####@@.",
".+++.+@@@####@@##@@@##@##@@##@@@@@@@@@@@##@##@@@@@##@@@##@@@##@@##@##@@.",
".+++.+@@@@##@@@##@@@##@##@@##@@@@@@@@@@##@@##@@@@@##@@@#######@##@@##@@.",
".+++.+@@@@##@@@##@@@##@##@@##@@@@@@@@@@##@@##@@@@@##@@@##@@@@@@##@@##@@.",
".+++.+@@@@##@@@##@@@##@##@@##@@@@@@@@@@##@@##@@@@@##@@@##@@@##@##@@##@@.",
".+++.+@@@####@@@#####@@@###@##@@@@@@@@@@###@##@@@####@@@#####@@@###@##@.",
".+++.+@@@@@@@@@@@@@@@@@@@@@@@@@@@@@@@@@@@@@@@@@@@@@@@@@@@@@@@@@@@@@@@@@.",
".+++.+@@@@@@@@@@@@@@@@@@@@@@@@@@@@@@@@@@@@@@@@@@@@@@@@@@@@@@@@@@@@@@@@@.",
".+++.+@@@@@@@@@@@@@@@@@@@@@@@@@@@@@@@@@@@###@@@@@@@@@@@@@@@@@@@@@@@@@@@.",
".+++.+@@@@@@@@@@@@@@@@@@@@@@@@@@@@@@@@@@##@##@@@@@@@@@@@@@@@@@@@@@@@@@@.",
".+++.+@@@@@@@@@@@@@@@@@@@@@@@@@@@@@@@@@@##@@#@@@@@@@@@@@@@@@@@@@@@@@@@@.",
".+++.+@@@@@@@@@@@@@@@@@@@@@@@@@@#####@@@##@@@@@@@@@@@@@@@@@@@@@@@@@@@@@.",
".+++.+@@@@@@@@@@@@@@@@@@@@@@@@@##@@@##@####@@@@@@@@@@@@@@@@@@@@@@@@@@@@.",
".+++.+@@@@@@@@@@@@@@@@@@@@@@@@@##@@@##@@##@@@@@@@@@@@@@@@@@@@@@@@@@@@@@.",
".+++.+@@@@@@@@@@@@@@@@@@@@@@@@@##@@@##@@##@@@@@@@@@@@@@@@@@@@@@@@@@@@@@.",
".+++.+@@@@@@@@@@@@@@@@@@@@@@@@@##@@@##@@##@@@@@@@@@@@@@@@@@@@@@@@@@@@@@.",
".+++.+@@@@@@@@@@@@@@@@@@@@@@@@@@#####@@####@@@@@@@@@@@@@@@@@@@@@@@@@@@@.",
".+++.+@@@@@@@@@@@@@@@@@@@@@@@@@@@@@@@@@@@@@@@@@@@@@@@@@@@@@@@@@@@@@@@@@.",
".+++.+@@@@@@@@@@@@@@@@@@@@@@@@@@@@@@@@@@@@@@@@@@@@@@@@@@@@@@@@@@@@@@@@@.",
".+++.+@@@@@@@@@@@@@@@@@@@@@@@@@@@@@@@@@@@@@@@@##@@@@@@@@@@@@@@@@@@@@@@@.",
".+++.+@@@@@@@@@@@@@@@@@@@@@@@@@@@@@@@@@@@@@@@@##@@@@@@@@@@@@@@@@@@@@@@@.",
".+++.+@@@@@@@@@@@@@@@@@@@@@@@@@@@@@@@@@@@@@@@@@@@@@@@@@@@@@@@@@@@@@@@@@.",
".+++.+@@@@@@@@@@@@@##@###@@@####@@@##@###@@@@###@@@@#####@@@@@@@@@@@@@@.",
".+++.+@@@@@@@@@@@@@@##@@##@@@@@##@@@##@@##@@@@##@@@##@@@##@@@@@@@@@@@@@.",
".+++.+@@@@@@@@@@@@@@##@@##@@#####@@@##@@##@@@@##@@@##@@@@@@@@@@@@@@@@@@.",
".+++.+@@@@@@@@@@@@@@##@@##@##@@##@@@##@@##@@@@##@@@##@@@@@@@@@@@@@@@@@@.",
".+++.+@@@@@@@@@@@@@@#####@@##@@##@@@##@@##@@@@##@@@##@@@##@@@@@@@@@@@@@.",
".+++.+@@@@@@@@@@@@@@##@@@@@@###@##@@##@@##@@@####@@@#####@@@@@@@@@@@@@@.",
".+++.+@@@@@@@@@@@@@@##@@@@@@@@@@@@@@@@@@@@@@@@@@@@@@@@@@@@@@@@@@@@@@@@@.",
".....+@@@@@@@@@@@@@####@@@@@@@@@@@@@@@@@@@@@@@@@@@@@@@@@@@@@@@@@@@@@@@@.",
"    .+@@@@@@@@@@@@@@@@@@@@@@@@@@@@@@@@@@@@@@@@@@@@@@@@@@@@@@@@@@@@@@@@@.",
"    .+@@@@@@@@@@@@@@@@@@@@@@@@@@@@@@@@@@@@@@@@@@@@@@@@@@@@@@@@@@@@@@@@@.",
"    .++++++++++++++++++++++++++++++++++++++++++++++++++++++++++++++++++.",
"    ...................................................................."};
