/* XPM */
static char * exit1_xpm[] = {
"64 64 18 1",
" 	c #3A3A50",
".	c #FDFDFD",
"+	c #D0BE9C",
"@	c #EEE1B7",
"#	c #46465E",
"$	c #AAA496",
"%	c #B0B0A0",
"&	c #565972",
"*	c #F8F8F8",
"=	c #568D61",
"-	c #B0C8B4",
";	c #689183",
">	c #C1C6A5",
",	c #6C6E85",
"'	c #D8D0E0",
")	c #EBE4F2",
"!	c #588278",
"~	c #A09B95",
"                                                                ",
"                                                                ",
"................................................................",
"................................................................",
"................................................................",
"................................................................",
"................................................................",
"................................................................",
"................................................................",
"................................................................",
"                                                                ",
"                                                                ",
"++++++++++++++++++++++++++++++++++++++++++++++++++++++++++++++++",
"++++++++++++++++++++++++++++++++++++++++++++++++++++++++++++++++",
"@@@@@@@@@@@@@@@@    ############################@@@@@@@@@@@@@@@@",
"@@@@@@@@@@@@@@@@    ############################@@@@@@@@@@@@@@@@",
"@@@@@@@@@@@@@@@@$$$$%%%%%%%%%%%%%%%%%%%%%%%%%%%%@@@@@@@@@@@@@@@@",
"@@@@@@@@@@@@@@@@$$$$%%%%%%%%%%%%%%%%%%%%%%%%%%%%@@@@@@@@@@@@@@@@",
"@@@@@@@@@@@@@@@@$$$$&&&&&&&&####&&##########%%%%@@@@@@@@@@@@@@@@",
"@@@@@@@@@@@@@@@@$$$$&&&&&&&&####&&##########%%%%@@@@@@@@@@@@@@@@",
"@@@@@@@@@@@@@@@@$$$$&&********************##%%%%@@@@@@@@@@@@@@@@",
"@@@@@@@@@@@@@@@@$$$$&&********************##%%%%@@@@@@@@@@@@@@@@",
"@@@@@@@@@@@@@@@@$$$$##**==----====--====**  %%%%@@@@@@@@@@@@@@@@",
"@@@@@@@@@@@@@@@@$$$$##**==----====--====**  %%%%@@@@@@@@@@@@@@@@",
"@@@@@@@@@@@@@@@@$$$$##**==****====**====**##%%%%@@@@@@@@@@@@@@@@",
"@@@@@@@@@@@@@@@@$$$$##**==****====**====**##%%%%@@@@@@@@@@@@@@@@",
"@@@@@@@@@@@@@@@@$$$$##**==****==******==**  %%%%@@@@@@@@@@@@@@@@",
"@@@@@@@@@@@@@@@@$$$$##**==****==******==**  %%%%@@@@@@@@@@@@@@@@",
"@@@@@@@@@@@@@@@@$$$$##**========--**--==**  %%%%@@@@@@@@@@@@@@@@",
"@@@@@@@@@@@@@@@@$$$$##**========--**--==**  %%%%@@@@@@@@@@@@@@@@",
"@@@@@@@@@@@@@@@@$$$$##********************  %%%%@@@@@@@@@@@@@@@@",
"@@@@@@@@@@@@@@@@$$$$##********************  %%%%@@@@@@@@@@@@@@@@",
";;;;;;;;;;;;;;;;$$$$&&####                  %%%%;;;;;;;;;;;;;;;;",
";;;;;;;;;;;;;;;;$$$$&&####                  %%%%;;;;;;;;;;;;;;;;",
">>>>>>>>>>>>>>>>$$$$%%%%%%%%%%%%%%%%%%%%%%%%%%%%>>>>>>>>>>>>>>>>",
">>>>>>>>>>>>>>>>$$$$%%%%%%%%%%%%%%%%%%%%%%%%%%%%>>>>>>>>>>>>>>>>",
";;;;;;;;;;;;;;;;$$$$%%%%%%%%%%%%%%%%%%%%%%%%%%%%;;;;;;;;;;;;;;;;",
";;;;;;;;;;;;;;;;$$$$%%%%%%%%%%%%%%%%%%%%%%%%%%%%;;;;;;;;;;;;;;;;",
";;;;;;;;;;;;;;;;$$$$%%%%%%%%%%%%%%%%%%%%%%%%%%%%;;;;;;;;;;;;;;;;",
";;;;;;;;;;;;;;;;$$$$%%%%%%%%%%%%%%%%%%%%%%%%%%%%;;;;;;;;;;;;;;;;",
";;;;;;;;;;;;;;;;$$&&##$$$$$$$$$$$$$$$$$$$$##&&%%;;;;;;;;;;;;;;;;",
";;;;;;;;;;;;;;;;$$&&##$$$$$$$$$$$$$$$$$$$$##&&%%;;;;;;;;;;;;;;;;",
";;;;;;;;;;;;;;;;$$##&&##&&&&&&&&####&&####&&##%%;;;;;;;;;;;;;;;;",
";;;;;;;;;;;;;;;;$$##&&##&&&&&&&&####&&####&&##%%;;;;;;;;;;;;;;;;",
";;;;;;;;;;;;;;;;$$##,,''****''))**''))))'',,##%%;;;;;;;;;;;;;;;;",
";;;;;;;;;;;;;;;;$$##,,''****''))**''))))'',,##%%;;;;;;;;;;;;;;;;",
";;;;;;;;;;;;;;;;$$&&########################&&%%;;;;;;;;;;;;;;;;",
";;;;;;;;;;;;;;;;$$&&########################&&%%;;;;;;;;;;;;;;;;",
";;;;;;;;;;;;;;;;$$$$$$$$$$$$$$$$$$$$$$$$$$$$%%%%;;;;;;;;;;;;;;;;",
";;;;;;;;;;;;;;;;$$$$$$$$$$$$$$$$$$$$$$$$$$$$%%%%;;;;;;;;;;;;;;;;",
";;;;;;;;;;;;;;;;$$$$%%%%%%%%%%%%%%%%%%%%%%%%%%%%;;;;;;;;;;;;;;;;",
";;;;;;;;;;;;;;;;$$$$%%%%%%%%%%%%%%%%%%%%%%%%%%%%;;;;;;;;;;;;;;;;",
";;;;;;;;;;;;;;;;$$$$%%%%%%%%%%%%%%%%%%%%%%%%%%%%;;;;;;;;;;;;;;;;",
";;;;;;;;;;;;;;;;$$$$%%%%%%%%%%%%%%%%%%%%%%%%%%%%;;;;;;;;;;;;;;;;",
";;;;;;;;;;;;;;;;$$$$%%%%%%%%%%%%%%%%%%%%%%%%%%%%;;;;;;;;;;;;;;;;",
";;;;;;;;;;;;;;;;$$$$%%%%%%%%%%%%%%%%%%%%%%%%%%%%;;;;;;;;;;;;;;;;",
";;;;;;;;;;;;;;;;$$$$%%%%%%%%%%%%%%%%%%%%%%%%%%%%;;;;;;;;;;;;;;;;",
";;;;;;;;;;;;;;;;$$$$%%%%%%%%%%%%%%%%%%%%%%%%%%%%;;;;;;;;;;;;;;;;",
"!!!!!!!!!!!!!!!!$$$$%%%%%%%%%%%%%%%%%%%%%%%%%%%%!!!!!!!!!!!!!!!!",
"!!!!!!!!!!!!!!!!$$$$%%%%%%%%%%%%%%%%%%%%%%%%%%%%!!!!!!!!!!!!!!!!",
"!!!!!!!!!!!!!!!!~~~~~~~~~~~~~~~~~~~~~~~~~~~~~~~~!!!!!!!!!!!!!!!!",
"!!!!!!!!!!!!!!!!~~~~~~~~~~~~~~~~~~~~~~~~~~~~~~~~!!!!!!!!!!!!!!!!",
"                                                                ",
"                                                                "};
