/* XPM */
static char * exit3_xpm[] = {
"64 64 16 1",
" 	c #3A3A50",
".	c #FDFDFD",
"+	c #D0BE9C",
"@	c #EEE1B7",
"#	c #A09B95",
"$	c #AAA496",
"%	c #46465E",
"&	c #F8F8F8",
"*	c #565972",
"=	c #6C6E85",
"-	c #B0B0A0",
";	c #D8D0E0",
">	c #EBE4F2",
",	c #689183",
"'	c #C1C6A5",
")	c #588278",
"                                                                ",
"                                                                ",
"................................................................",
"................................................................",
"................................................................",
"................................................................",
"................................................................",
"................................................................",
"................................................................",
"................................................................",
"                                                                ",
"                                                                ",
"++++++++++++++++++++++++++++++++++++++++++++++++++++++++++++++++",
"++++++++++++++++++++++++++++++++++++++++++++++++++++++++++++++++",
"@@@@@@@@@@@@@@@@##$$%%&&&&**$$**                @@@@@@@@@@@@@@@@",
"@@@@@@@@@@@@@@@@##$$%%&&&&**$$**                @@@@@@@@@@@@@@@@",
"@@@@@@@@@@@@@@@@##$$%%&&%%$$$$==                @@@@@@@@@@@@@@@@",
"@@@@@@@@@@@@@@@@##$$%%&&%%$$$$==                @@@@@@@@@@@@@@@@",
"@@@@@@@@@@@@@@@@##$$%%&&==$$%%%%                @@@@@@@@@@@@@@@@",
"@@@@@@@@@@@@@@@@##$$%%&&==$$%%%%                @@@@@@@@@@@@@@@@",
"@@@@@@@@@@@@@@@@##$$%%%%--$$;;$$                @@@@@@@@@@@@@@@@",
"@@@@@@@@@@@@@@@@##$$%%%%--$$;;$$                @@@@@@@@@@@@@@@@",
"@@@@@@@@@@@@@@@@##$$%%----**%%$$                @@@@@@@@@@@@@@@@",
"@@@@@@@@@@@@@@@@##$$%%----**%%$$                @@@@@@@@@@@@@@@@",
"@@@@@@@@@@@@@@@@##$$$$--$$>>$$$$                @@@@@@@@@@@@@@@@",
"@@@@@@@@@@@@@@@@##$$$$--$$>>$$$$                @@@@@@@@@@@@@@@@",
"@@@@@@@@@@@@@@@@##$$----**%%$$$$                @@@@@@@@@@@@@@@@",
"@@@@@@@@@@@@@@@@##$$----**%%$$$$                @@@@@@@@@@@@@@@@",
"@@@@@@@@@@@@@@@@##$$--$$&&$$$$$$                @@@@@@@@@@@@@@@@",
"@@@@@@@@@@@@@@@@##$$--$$&&$$$$$$                @@@@@@@@@@@@@@@@",
"@@@@@@@@@@@@@@@@##$$--%%%%$$$$$$                @@@@@@@@@@@@@@@@",
"@@@@@@@@@@@@@@@@##$$--%%%%$$$$$$                @@@@@@@@@@@@@@@@",
",,,,,,,,,,,,,,,,##$$%%;;$$$$$$$$                ,,,,,,,,,,,,,,,,",
",,,,,,,,,,,,,,,,##$$%%;;$$$$$$$$                ,,,,,,,,,,,,,,,,",
"''''''''''''''''##==**%%--$$$$$$                ''''''''''''''''",
"''''''''''''''''##==**%%--$$$$$$                ''''''''''''''''",
",,,,,,,,,,,,,,,,##**==$$--$$$$##                ,,,,,,,,,,,,,,,,",
",,,,,,,,,,,,,,,,##**==$$--$$$$##                ,,,,,,,,,,,,,,,,",
",,,,,,,,,,,,,,,,##%%%%----$$$$%%                ,,,,,,,,,,,,,,,,",
",,,,,,,,,,,,,,,,##%%%%----$$$$%%                ,,,,,,,,,,,,,,,,",
",,,,,,,,,,,,,,,,##==$$----$$##                  ,,,,,,,,,,,,,,,,",
",,,,,,,,,,,,,,,,##==$$----$$##                  ,,,,,,,,,,,,,,,,",
",,,,,,,,,,,,,,,,##$$------$$%%                  ,,,,,,,,,,,,,,,,",
",,,,,,,,,,,,,,,,##$$------$$%%                  ,,,,,,,,,,,,,,,,",
",,,,,,,,,,,,,,,,##$$------##                    ,,,,,,,,,,,,,,,,",
",,,,,,,,,,,,,,,,##$$------##                    ,,,,,,,,,,,,,,,,",
",,,,,,,,,,,,,,,,##$$----$$%%                    ,,,,,,,,,,,,,,,,",
",,,,,,,,,,,,,,,,##$$----$$%%                    ,,,,,,,,,,,,,,,,",
",,,,,,,,,,,,,,,,##$$----##                      ,,,,,,,,,,,,,,,,",
",,,,,,,,,,,,,,,,##$$----##                      ,,,,,,,,,,,,,,,,",
",,,,,,,,,,,,,,,,##$$--$$%%                      ,,,,,,,,,,,,,,,,",
",,,,,,,,,,,,,,,,##$$--$$%%                      ,,,,,,,,,,,,,,,,",
",,,,,,,,,,,,,,,,##$$--##                        ,,,,,,,,,,,,,,,,",
",,,,,,,,,,,,,,,,##$$--##                        ,,,,,,,,,,,,,,,,",
",,,,,,,,,,,,,,,,##$$$$%%                        ,,,,,,,,,,,,,,,,",
",,,,,,,,,,,,,,,,##$$$$%%                        ,,,,,,,,,,,,,,,,",
",,,,,,,,,,,,,,,,##$$##                          ,,,,,,,,,,,,,,,,",
",,,,,,,,,,,,,,,,##$$##                          ,,,,,,,,,,,,,,,,",
"))))))))))))))))##$$%%                          ))))))))))))))))",
"))))))))))))))))##$$%%                          ))))))))))))))))",
"))))))))))))))))####                            ))))))))))))))))",
"))))))))))))))))####                            ))))))))))))))))",
"                                                                ",
"                                                                "};
