/* XPM */
static char * front_p14_xpm[] = {
"32 46 18 1",
" 	c None",
".	c #3A3A50",
"+	c #46465E",
"@	c #E9861D",
"#	c #F2B22B",
"$	c #ED931E",
"%	c #E36C1B",
"&	c #F3A54E",
"*	c #FFCBB0",
"=	c #6C5981",
"-	c #F6AE9F",
";	c #568D61",
">	c #E0708E",
",	c #A6B6E9",
"'	c #C1D2EE",
")	c #C6BDD5",
"!	c #EBE4F2",
"~	c #565972",
"                                ",
"                                ",
"        ....++++++++....        ",
"        ....++++++++....        ",
"      ++@@########$$$$@@..      ",
"      ++@@########$$$$@@..      ",
"    ..%%$$##########$$@@%%..    ",
"    ..%%$$##########$$@@%%..    ",
"    ..@@$$$$######$$@@@@@@..    ",
"    ..@@$$$$######$$@@@@@@..    ",
"  ..@@$$$$$$$$$$$$$$@@##@@%%++  ",
"  ..@@$$$$$$$$$$$$$$@@##@@%%++  ",
"  ++@@@@$$$$$$$$$$@@##$$@@%%..  ",
"  ++@@@@$$$$$$$$$$@@##$$@@%%..  ",
"..%%%%@@&&$$$$$$@@@@$$@@%%%%%%..",
"..%%%%@@&&$$$$$$@@@@$$@@%%%%%%..",
"..%%%%@@&&$$@@@@@@@@@@@@%%%%%%..",
"..%%%%@@&&$$@@@@@@@@@@@@%%%%%%..",
"..%%%%$$**&&@@$$@@$$@@$$@@%%%%..",
"..%%%%$$**&&@@$$@@$$@@$$@@%%%%..",
"..%%%%&&****&&@@&&@@&&@@&&%%%%..",
"..%%%%&&****&&@@&&@@&&@@&&%%%%..",
"..%%%%****==********==****%%%%..",
"..%%%%****==********==****%%%%..",
"  ..%%--**;;********;;**--%%..  ",
"  ..%%--**;;********;;**--%%..  ",
"    ++-->>>>-------->>>>--++    ",
"    ++-->>>>-------->>>>--++    ",
"  ..,,++++++++++++++++++++,,++  ",
"  ..,,++++++++++++++++++++,,++  ",
"  ..'',,,,,,,,,,,,,,,,,,,,''++  ",
"  ..'',,,,,,,,,,,,,,,,,,,,''++  ",
"++**..''''''''''''''''''''++**++",
"++**..''''''''''''''''''''++**++",
"++**--..++,,,,,,,,,,,,++..--**++",
"++**--..++,,,,,,,,,,,,++..--**++",
"  ++....))++++++++++++))....++  ",
"  ++....))++++++++++++))....++  ",
"      ..!!!!!!!!!!!!!!!!..      ",
"      ..!!!!!!!!!!!!!!!!..      ",
"      ..!!!!~~....~~!!!!..      ",
"      ..!!!!~~....~~!!!!..      ",
"      ..,,,,..    ..,,,,..      ",
"      ..,,,,..    ..,,,,..      ",
"        ....        ....        ",
"        ....        ....        "};
