/* XPM */
static char * front_p1_xpm[] = {
"32 44 16 1",
" 	c None",
".	c #46465E",
"+	c #647E99",
"@	c #566279",
"#	c #535662",
"$	c #3A3A50",
"%	c #C9BFB1",
"&	c #D4CABB",
"*	c #C6B4A5",
"=	c #674D49",
"-	c #B4613F",
";	c #C8A9AC",
">	c #D9C8C6",
",	c #C87079",
"'	c #D0847C",
")	c #7B6562",
"        ................        ",
"        ................        ",
"      ..++++++++++@@@@##..      ",
"      ..++++++++++@@@@##..      ",
"    ..++++++++++++@@@@@@##..    ",
"    ..++++++++++++@@@@@@##..    ",
"    ..@@++++++++@@@@@@@@##..    ",
"    ..@@++++++++@@@@@@@@##..    ",
"  ..##@@@@@@@@@@@@@@@@@@####..  ",
"  ..##@@@@@@@@@@@@@@@@@@####..  ",
"  $$######@@@@@@@@@@@@######$$  ",
"  $$######@@@@@@@@@@@@######$$  ",
"  ..####%%##################..  ",
"  ..####%%##################..  ",
"..######&&%%##################..",
"..######&&%%##################..",
"$$######&&&&&&&&&&%%##########$$",
"$$######&&&&&&&&&&%%##########$$",
"$$####%%&&&&&&&&&&&&&&&&%%####$$",
"$$####%%&&&&&&&&&&&&&&&&%%####$$",
"$$####&&&&$$&&&&&&&&$$&&&&####$$",
"$$####&&&&$$&&&&&&&&$$&&&&####$$",
"$$####**&&==&&&&&&&&==&&**####$$",
"$$####**&&==&&&&&&&&==&&**####$$",
"$$####**----********----**####$$",
"$$####**----********----**####$$",
"$$$$;;....................;;..$$",
"$$$$;;....................;;..$$",
"  $$>>;;,,,,;;,,,,;;,,,,;;>>..  ",
"  $$>>;;,,,,;;,,,,;;,,,,;;>>..  ",
"..&&$$>>>>''''>>>>''''>>>>..&&..",
"..&&$$>>>>''''>>>>''''>>>>..&&..",
"..&&**$$..;;,,,,,,,,;;..$$**&&..",
"..&&**$$..;;,,,,,,,,;;..$$**&&..",
"  ..$$$$@@............@@$$$$..  ",
"  ..$$$$@@............@@$$$$..  ",
"      $$++++++++++++++++$$      ",
"      $$++++++++++++++++$$      ",
"      $$++++........++++$$      ",
"      $$++++........++++$$      ",
"      $$))))$$    $$))))$$      ",
"      $$))))$$    $$))))$$      ",
"        $$$$        $$$$        ",
"        $$$$        $$$$        "};
