/* XPM */
static char * love2_xpm[] = {
"32 32 14 1",
" 	c None",
".	c #4F5379",
"+	c #F8F8F8",
"@	c #EBE1F6",
"#	c #404064",
"$	c #AF4040",
"%	c #A82B2D",
"&	c #353556",
"*	c #FFA0A0",
"=	c #881616",
"-	c #D93232",
";	c #FC5454",
">	c #FF8575",
",	c #E63F38",
"     ....                       ",
"   ..++++..                     ",
"  .++@@@@++.                    ",
" .+@@@@@@@@+.                   ",
" #@@@@@@@@@@#                   ",
"#+@@$$@@%&@@+#                  ",
"#@@$*+=%--&@@#                  ",
"#@@&;>>,--&@@#                  ",
"#@@%;;,,--%@@#                  ",
"#@@@&;,--&@@@#                  ",
" #@@@&--&@@@#                   ",
" #@@@@=&@@@@#                   ",
"  &@@@@@@@@&                    ",
"   #.@@@@#&                     ",
"     ####                       ",
"                                ",
"        ..                      ",
"       .+@#                     ",
"       #@@#                     ",
"        ##                      ",
"      ..                        ",
"     .+@#                       ",
"     #@@#                       ",
"      ##                        ",
"                                ",
"                                ",
"                                ",
"                                ",
"                                ",
"                                ",
"                                ",
"                                "};
