/* XPM */
static char * money1_xpm[] = {
"32 32 15 1",
" 	c None",
".	c #4F5379",
"+	c #F8F8F8",
"@	c #EBE1F6",
"#	c #575B85",
"$	c #404064",
"%	c #87540F",
"&	c #FFBC2D",
"*	c #FF9E20",
"=	c #3A3A5F",
"-	c #FFE57B",
";	c #FFFBDB",
">	c #FFD83B",
",	c #46466E",
"'	c #353556",
"   ..++++..                     ",
"  .++@@@@++.                    ",
" .+@@@##@@@+.                   ",
" $@@%#&*==%@$                   ",
"$+@#--;;;>=@+$                  ",
"$@@#----->=@@$                  ",
"$@@,;%====@@@$                  ",
"$@@@#;-->=@@@$                  ",
"$@@@=,==%*=@@$                  ",
"$@@=&>&&**=@@$                  ",
"$@@=&>&&**=@@$                  ",
" $@%==**=%@@$                   ",
" $@@@@==@@@@$                   ",
"  '@@@@@@@@'                    ",
"   $.@@@@$'                     ",
"                                ",
"                                ",
"                                ",
"                                ",
"                                ",
"                                ",
"                                ",
"                                ",
"                                ",
"                                ",
"                                ",
"                                ",
"                                ",
"                                ",
"                                ",
"                                ",
"                                "};
