/* XPM */
static char * money2_xpm[] = {
"32 32 12 1",
" 	c None",
".	c #4F5379",
"+	c #F8F8F8",
"@	c #EBE1F6",
"#	c #404064",
"$	c #7B4C0E",
"%	c #F2B22B",
"&	c #ED931E",
"*	c #353556",
"=	c #FFE57B",
"-	c #FFFBDB",
";	c #F8D239",
"     ....                       ",
"   ..++++..                     ",
"  .++@@@@++.                    ",
" .+@@@..@@@+.                   ",
" #@@$.%&**$@#                   ",
"#+@.==---;*@+#                  ",
"#@@#-$****@@@#                  ",
"#@@@.-==;*@@@#                  ",
"#@@@*#**$&*@@#                  ",
"#@@*%;%%&&*@@#                  ",
" #@$**&&*$@@#                   ",
" #@@@@**@@@@#                   ",
"  *@@@@@@@@*                    ",
"   #.@@@@#*                     ",
"     ####                       ",
"                                ",
"                                ",
"                                ",
"                                ",
"                                ",
"                                ",
"                                ",
"                                ",
"                                ",
"                                ",
"                                ",
"                                ",
"                                ",
"                                ",
"                                ",
"                                ",
"                                "};
