/* XPM */
static char * nmy_xpm[] = {
"32 48 22 1",
" 	c None",
".	c #46465E",
"+	c #3A3A50",
"@	c #565972",
"#	c #D93232",
"$	c #CB2A2A",
"%	c #E63F38",
"&	c #9E2B2D",
"*	c #FC5C46",
"=	c #EDE2E2",
"-	c #E2D7D7",
";	c #F8F8F8",
">	c #E0ADAB",
",	c #8B8BAB",
"'	c #F6AE9F",
")	c #FFCBB0",
"!	c #3B7AA2",
"~	c #E07070",
"{	c #A82B2D",
"]	c #FFB893",
"^	c #F69784",
"/	c #FF8575",
"            ....++++++++++      ",
"            ....++++++++++      ",
"        @@..############$$++    ",
"        @@..############$$++    ",
"      @@##%%%%%%%%%%##&&++$$++  ",
"      @@##%%%%%%%%%%##&&++$$++  ",
"    @@##%%%%****%%%%%%##$$++==++",
"    @@##%%%%****%%%%%%##$$++==++",
"    ..%%****%%**%%%%%%####++--++",
"    ..%%****%%**%%%%%%####++--++",
"  @@##%%%%****%%%%%%######$$++  ",
"  @@##%%%%****%%%%%%######$$++  ",
"  ..##%%%%%%%%%%%%%%######$$++  ",
"  ..##%%%%%%%%%%%%%%######$$++  ",
"  ++##%%%%%%%%%%%%######$$$$++  ",
"  ++##%%%%%%%%%%%%######$$$$++  ",
"++;;>>##%%%%%%########$$$$>>;;++",
"++;;>>##%%%%%%########$$$$>>;;++",
"++--;;;;;;;;;;;;;;;;;;;;;;;;--++",
"++--;;;;;;;;;;;;;;;;;;;;;;;;--++",
"  ..,,--------------------,,..  ",
"  ..,,--------------------,,..  ",
"  ..====''))))))))))))''====..  ",
"  ..====''))))))))))))''====..  ",
"  ..--;;))..))))))))..));;--..  ",
"  ..--;;))..))))))))..));;--..  ",
"    ..;;''!!))))))))!!'';;..    ",
"    ..;;''!!))))))))!!'';;..    ",
"    ..;;;;~~~~;;;;~~~~;;;;..    ",
"    ..;;;;~~~~;;;;~~~~;;;;..    ",
"  ++%%##;;;;;;))));;;;;;##%%..  ",
"  ++%%##;;;;;;))));;;;;;##%%..  ",
"  ++%%{{##;;;;;;;;;;;;##{{%%..  ",
"  ++%%{{##;;;;;;;;;;;;##{{%%..  ",
"..;;==++%%############%%..==;;..",
"..;;==++%%############%%..==;;..",
"..]]^^++%%//**%%==%%%%%%++^^]]..",
"..]]^^++%%//**%%==%%%%%%++^^]]..",
"  ..++++++****%%%%%%%%++++++..  ",
"  ..++++++****%%%%%%%%++++++..  ",
"      ++##++{{{{=={{++##++      ",
"      ++##++{{{{=={{++##++      ",
"      ++%%%%@@....@@%%%%++      ",
"      ++%%%%@@....@@%%%%++      ",
"      ++@@@@++    ++@@@@++      ",
"      ++@@@@++    ++@@@@++      ",
"        ++++        ++++        ",
"        ++++        ++++        "};
