/* XPM */
static char * nmy2_xpm[] = {
"32 50 22 1",
" 	c None",
".	c #48485D",
"+	c #3D3D50",
"@	c #575A70",
"#	c #D6393D",
"$	c #C83235",
"%	c #E34542",
"&	c #9B3135",
"*	c #FA5F50",
"=	c #ECE1E1",
"-	c #E1D6D6",
";	c #F8F8F8",
">	c #DEACAB",
",	c #8A8BA8",
"'	c #F4ADA0",
")	c #FECAB1",
"!	c #407A9E",
"~	c #DE7172",
"{	c #A53235",
"]	c #FEB796",
"^	c #F49686",
"/	c #FD8579",
"                                ",
"                                ",
"            ....++++++++++      ",
"            ....++++++++++      ",
"        @@..############$$++    ",
"        @@..############$$++    ",
"      @@##%%%%%%%%%%##&&++$$++  ",
"      @@##%%%%%%%%%%##&&++$$++  ",
"    @@##%%%%****%%%%%%##$$++==++",
"    @@##%%%%****%%%%%%##$$++==++",
"    ..%%****%%**%%%%%%####++--++",
"    ..%%****%%**%%%%%%####++--++",
"  @@##%%%%****%%%%%%######$$++  ",
"  @@##%%%%****%%%%%%######$$++  ",
"  ..##%%%%%%%%%%%%%%######$$++  ",
"  ..##%%%%%%%%%%%%%%######$$++  ",
"  ++##%%%%%%%%%%%%######$$$$++  ",
"  ++##%%%%%%%%%%%%######$$$$++  ",
"++;;>>##%%%%%%########$$$$>>;;++",
"++;;>>##%%%%%%########$$$$>>;;++",
"++--;;;;;;;;;;;;;;;;;;;;;;;;--++",
"++--;;;;;;;;;;;;;;;;;;;;;;;;--++",
"  ..,,--------------------,,..  ",
"  ..,,--------------------,,..  ",
"  ..====''))))))))))))''====..  ",
"  ..====''))))))))))))''====..  ",
"  ..--;;))..))))))))..));;--..  ",
"  ..--;;))..))))))))..));;--..  ",
"    ..;;''!!))))))))!!'';;..    ",
"    ..;;''!!))))))))!!'';;..    ",
"    ..;;;;~~~~;;;;~~~~;;;;..    ",
"    ..;;;;~~~~;;;;~~~~;;;;..    ",
"  ++%%##;;;;;;))));;;;;;##%%..  ",
"  ++%%##;;;;;;))));;;;;;##%%..  ",
"  ++%%{{##;;;;;;;;;;;;##{{%%..  ",
"  ++%%{{##;;;;;;;;;;;;##{{%%..  ",
"..;;==++%%############%%..==;;..",
"..;;==++%%############%%..==;;..",
"..]]^^++%%//**%%==%%%%%%++^^]]..",
"..]]^^++%%//**%%==%%%%%%++^^]]..",
"  ..++++++****%%%%%%%%++++++..  ",
"  ..++++++****%%%%%%%%++++++..  ",
"      ++##++{{{{=={{++##++      ",
"      ++##++{{{{=={{++##++      ",
"      ++%%%%@@....@@%%%%++      ",
"      ++%%%%@@....@@%%%%++      ",
"      ++@@@@++    ++@@@@++      ",
"      ++@@@@++    ++@@@@++      ",
"        ++++        ++++        ",
"        ++++        ++++        "};
