/* XPM */
static char * pnjB3_xpm[] = {
"32 46 18 1",
" 	c None",
".	c #565972",
"+	c #46465E",
"@	c #5D585F",
"#	c #716B6E",
"$	c #555157",
"%	c #3A3A50",
"&	c #816F69",
"*	c #97756B",
"=	c #B58472",
"-	c #AF6C65",
";	c #B2736D",
">	c #AA5E56",
",	c #90444C",
"'	c #985848",
")	c #C2B8D5",
"!	c #D8D0E0",
"~	c #6C6E85",
"                                ",
"                                ",
"        ....++++++++++++        ",
"        ....++++++++++++        ",
"      ..@@########@@@@@@++      ",
"      ..@@########@@@@@@++      ",
"    ..@@############@@@@@@++    ",
"    ..@@############@@@@@@++    ",
"    ++@@############@@@@@@++    ",
"    ++@@############@@@@@@++    ",
"  ++$$@@@@########@@@@@@@@$$++  ",
"  ++$$@@@@########@@@@@@@@$$++  ",
"  %%$$@@@@@@@@@@@@@@@@@@@@$$%%  ",
"  %%$$@@@@@@@@@@@@@@@@@@@@$$%%  ",
"  %%$$@@@@@@@@@@@@@@@@@@@@$$%%  ",
"  %%$$@@@@@@@@@@@@@@@@@@@@$$%%  ",
"  %%&&**================**&&%%  ",
"  %%&&**================**&&%%  ",
"  %%&&**================**&&%%  ",
"  %%&&**================**&&%%  ",
"  ++--**================**--++  ",
"  ++--**================**--++  ",
"  ++======;;========;;======++  ",
"  ++======;;========;;======++  ",
"    ++;;==%%========%%==;;++    ",
"    ++;;==%%========%%==;;++    ",
"    ++;;>>>>;;;;;;;;>>>>;;++    ",
"    ++;;>>>>;;;;;;;;>>>>;;++    ",
"  %%,,++++++++++++++++++++,,++  ",
"  %%,,++++++++++++++++++++,,++  ",
"  %%'',,,,,,++))))++,,,,,,''++  ",
"  %%'',,,,,,++))))++,,,,,,''++  ",
"++==%%''''''++!!!!++''''''++==++",
"++==%%''''''++!!!!++''''''++==++",
"++==;;%%,,,,++!!!!++,,,,%%;;==++",
"++==;;%%,,,,++!!!!++,,,,%%;;==++",
"  ++%%%%++++++....++++++%%%%++  ",
"  ++%%%%++++++....++++++%%%%++  ",
"      %%~~~~~~~~~~~~~~~~%%      ",
"      %%~~~~~~~~~~~~~~~~%%      ",
"      %%~~~~..++++..~~~~%%      ",
"      %%~~~~..++++..~~~~%%      ",
"      %%,,,,%%    %%,,,,%%      ",
"      %%,,,,%%    %%,,,,%%      ",
"        %%%%        %%%%        ",
"        %%%%        %%%%        "};
