/* XPM */
static char * pnjC1_xpm[] = {
"32 46 18 1",
" 	c None",
".	c #565972",
"+	c #46465E",
"@	c #BA8D5E",
"#	c #957350",
"$	c #8D7051",
"%	c #8A6552",
"&	c #3A3A50",
"*	c #A77A67",
"=	c #BF8B78",
"-	c #B57972",
";	c #674D49",
">	c #AA5E56",
",	c #A85377",
"'	c #B95D72",
")	c #B35E3F",
"!	c #C78C59",
"~	c #AB4A36",
"                                ",
"                                ",
"        ....++++++++++++        ",
"        ....++++++++++++        ",
"      ..@@@@@@@@@@##$$%%++      ",
"      ..@@@@@@@@@@##$$%%++      ",
"    ..@@@@@@@@@@@@######%%++    ",
"    ..@@@@@@@@@@@@######%%++    ",
"    ++$$@@@@@@@@########%%++    ",
"    ++$$@@@@@@@@########%%++    ",
"  ++%%$$################%%%%++  ",
"  ++%%$$################%%%%++  ",
"  &&%%%%%%$$##########%%%%%%&&  ",
"  &&%%%%%%$$##########%%%%%%&&  ",
"  ++%%%%**%%%%%%%%%%%%%%%%%%++  ",
"  ++%%%%**%%%%%%%%%%%%%%%%%%++  ",
"++%%%%%%==**%%%%%%%%%%%%%%%%%%++",
"++%%%%%%==**%%%%%%%%%%%%%%%%%%++",
"&&%%%%%%==========**%%%%%%%%%%&&",
"&&%%%%%%==========**%%%%%%%%%%&&",
"&&%%%%**================**%%%%&&",
"&&%%%%**================**%%%%&&",
"&&%%%%--==&&========&&==--%%%%&&",
"&&%%%%--==&&========&&==--%%%%&&",
"&&%%%%--==;;========;;==--%%%%&&",
"&&%%%%--==;;========;;==--%%%%&&",
";;%%%%-->>>>-------->>>>--%%%%;;",
";;%%%%-->>>>-------->>>>--%%%%;;",
";;&&,,++++++++....++++++++,,++;;",
";;&&,,++++++++....++++++++,,++;;",
"  &&'',,,,,,&&,,,,&&,,,,,,''++  ",
"  &&'',,,,,,&&,,,,&&,,,,,,''++  ",
"++==++''''''++''''++''''''++==++",
"++==++''''''++''''++''''''++==++",
"++==--&&++,,,,,,,,,,,,++&&--==++",
"++==--&&++,,,,,,,,,,,,++&&--==++",
"  ++&&&&))++++++++++++))&&&&++  ",
"  ++&&&&))++++++++++++))&&&&++  ",
"      &&!!!!!!!!!!!!!!!!&&      ",
"      &&!!!!!!!!!!!!!!!!&&      ",
"      &&!!!!..++++..!!!!&&      ",
"      &&!!!!..++++..!!!!&&      ",
"      &&~~~~&&    &&~~~~&&      ",
"      &&~~~~&&    &&~~~~&&      ",
"        &&&&        &&&&        ",
"        &&&&        &&&&        "};
