/* XPM */
static char * pumpkin_xpm[] = {
"32 32 19 1",
" 	c None",
".	c #565972",
"+	c #46465E",
"@	c #B8D040",
"#	c #568D61",
"$	c #9BC246",
"%	c #4E6E61",
"&	c #ED931E",
"*	c #F2B22B",
"=	c #F8D239",
"-	c #E86419",
";	c #3A3A50",
">	c #FF6E1B",
",	c #FF9E20",
"'	c #FFBC2D",
")	c #8186AB",
"!	c #69698D",
"~	c #FFD83B",
"{	c #A79796",
"            ..++                ",
"            ..++                ",
"          ..@@##++              ",
"          ..@@##++              ",
"          ..$$$$%%++            ",
"          ..$$$$%%++            ",
"      ..++++++##%%++++++++      ",
"      ..++++++##%%++++++++      ",
"    ..&&**==**##%%**==**&&++    ",
"    ..&&**==**##%%**==**&&++    ",
"  ++--&&**&&--%%%%--&&**&&--++  ",
"  ++--&&**&&--%%%%--&&**&&--++  ",
"  ++--**==**&&&&&&&&**==**--;;  ",
"  ++--**==**&&&&&&&&**==**--;;  ",
";;>>,,,,'',,'''''''',,'',,>>>>;;",
";;>>,,,,'',,'''''''',,'',,>>>>;;",
";;>>,,,,))'',,,,,,,,'')),,>>>>;;",
";;>>,,,,))'',,,,,,,,'')),,>>>>;;",
";;>>,,,,!!))~~,,,,''))!!>>>>>>;;",
";;>>,,,,!!))~~,,,,''))!!>>>>>>;;",
";;>>,,,,!!!!'',,,,''!!!!>>>>>>;;",
";;>>,,,,!!!!'',,,,''!!!!>>>>>>;;",
";;>>>>,,,,,,~~'''''',,>>>>>>>>;;",
";;>>>>,,,,,,~~'''''',,>>>>>>>>;;",
"{{;;>>>>!!))!!))!!))!!))>>>>;;{{",
"{{;;>>>>!!))!!))!!))!!))>>>>;;{{",
"{{{{;;>>>>!!))!!))!!))>>>>;;{{{{",
"{{{{;;>>>>!!))!!))!!))>>>>;;{{{{",
"  {{{{;;;;;;;;;;;;;;;;;;;;{{{{  ",
"  {{{{;;;;;;;;;;;;;;;;;;;;{{{{  ",
"    {{{{{{{{{{{{{{{{{{{{{{{{    ",
"    {{{{{{{{{{{{{{{{{{{{{{{{    "};
