/* XPM */
static char * safe_bucks1_xpm[] = {
"32 32 10 1",
" 	c None",
".	c #46465E",
"+	c #8B8BAB",
"@	c #9DA3B7",
"#	c #6C6E85",
"$	c #64677E",
"%	c #3A3A50",
"&	c #82829F",
"*	c #565972",
"=	c #EBE4F2",
"............................    ",
"............................    ",
"..++@@@@@@++@@++++++++++++..    ",
"..++@@@@@@++@@++++++++++++..    ",
"..######################$$%%    ",
"..######################$$%%    ",
"..##++++++&&++&&&&&&&&&&$$%%    ",
"..##++++++&&++&&&&&&&&&&$$%%    ",
"..##++################&&**%%    ",
"..##++################&&**%%    ",
"..##++$$$$$$##==++==++&&**%%    ",
"..##++$$$$$$##==++==++&&**%%    ",
"..##&&**..**##++==++==&&**%%    ",
"..##&&**..**##++==++==&&**%%    ",
"..##&&$$$$$$##==++==++&&**%%    ",
"..##&&$$$$$$##==++==++&&**%%    ",
"..##&&################&&**%%    ",
"..##&&################&&**%%    ",
"..##&&&&&&&&&&&&&&&&&&&&**%%    ",
"..##&&&&&&&&&&&&&&&&&&&&**%%    ",
"..$$$$********************%%    ",
"..$$$$********************%%    ",
"%%%%%%%%%%%%%%%%%%%%%%%%%%%%    ",
"%%%%%%%%%%%%%%%%%%%%%%%%%%%%    ",
"                                ",
"                                ",
"                                ",
"                                ",
"                                ",
"                                ",
"                                ",
"                                "};
