/* XPM */
static char * safe_bucks3_xpm[] = {
"32 32 15 1",
" 	c None",
".	c #46465E",
"+	c #8B8BAB",
"@	c #9DA3B7",
"#	c #6C6E85",
"$	c #64677E",
"%	c #3A3A50",
"&	c #7D94A2",
"*	c #4E6E61",
"=	c #B2AECB",
"-	c #568D61",
";	c #79A882",
">	c #565972",
",	c #D8D0E0",
"'	c #455C5B",
"............................    ",
"............................    ",
"..++@@@@@@++@@++++++++++++..    ",
"..++@@@@@@++@@++++++++++++..    ",
"..######################$$%%    ",
"..######################$$%%    ",
"..##%%%%&&****%%====**++$$%%    ",
"..##%%%%&&****%%====**++$$%%    ",
"..##%%--====%%%%;;====++>>%%    ",
"..##%%--====%%%%;;====++>>%%    ",
"..##%%**--&&%%--%%;;&&@@>>%%    ",
"..##%%**--&&%%--%%;;&&@@>>%%    ",
"..##..%%**%%;;----%%%%@@>>%%    ",
"..##..%%**%%;;----%%%%@@>>%%    ",
"..##%%%%%%,,,,;;--''%%##>>%%    ",
"..##%%%%%%,,,,;;--''%%##>>%%    ",
"..##..%%**;;,,,,''%%..##>>%%    ",
"..##..%%**;;,,,,''%%..##>>%%    ",
"..##....%%**;;==%%....##>>%%    ",
"..##....%%**;;==%%....##>>%%    ",
"..$$$$>>>>%%**%%>>>>>>##>>%%    ",
"..$$$$>>>>%%**%%>>>>>>##>>%%    ",
"%%%%%%%%%%%%%%%%%%%%..##..%%    ",
"%%%%%%%%%%%%%%%%%%%%..##..%%    ",
"                    %%$$..      ",
"                    %%$$..      ",
"                    %%$$%%      ",
"                    %%$$%%      ",
"                    ..%%..      ",
"                    ..%%..      ",
"                                ",
"                                "};
