/* XPM */
static char * vwall_xpm[] = {
"32 96 6 1",
" 	c None",
".	c #3A3A50",
"+	c #F8F8F8",
"@	c #CAB090",
"#	c #4B6E71",
"$	c #BDB88E",
"..++++++++++..@@                ",
"..++++++++++..@@                ",
"..++++++++++..@@@@              ",
"..++++++++++..@@@@              ",
"..++++++++++..@@@@              ",
"..++++++++++..@@@@              ",
"..++++++++++..@@@@@@            ",
"..++++++++++..@@@@@@            ",
"..++++++++++..@@@@@@            ",
"..++++++++++..@@@@@@            ",
"..++++++++++..@@@@@@##          ",
"..++++++++++..@@@@@@##          ",
"..++++++++++..@@@@@@##          ",
"..++++++++++..@@@@@@##          ",
"..++++++++++..@@@@@@##$$        ",
"..++++++++++..@@@@@@##$$        ",
"..++++++++++..@@@@@@##$$        ",
"..++++++++++..@@@@@@##$$        ",
"..++++++++++..@@@@@@##$$##      ",
"..++++++++++..@@@@@@##$$##      ",
"..++++++++++..@@@@@@##$$##      ",
"..++++++++++..@@@@@@##$$##      ",
"..++++++++++..@@@@@@##$$####    ",
"..++++++++++..@@@@@@##$$####    ",
"..++++++++++..@@@@@@##$$####    ",
"..++++++++++..@@@@@@##$$####    ",
"..++++++++++..@@@@@@##$$######  ",
"..++++++++++..@@@@@@##$$######  ",
"..++++++++++..@@@@@@##$$######  ",
"..++++++++++..@@@@@@##$$######  ",
"..++++++++++..@@@@@@##$$######..",
"..++++++++++..@@@@@@##$$######..",
"..++++++++++..@@@@@@##$$######..",
"..++++++++++..@@@@@@##$$######..",
"..++++++++++..@@@@@@##$$######..",
"..++++++++++..@@@@@@##$$######..",
"..++++++++++..@@@@@@##$$######..",
"..++++++++++..@@@@@@##$$######..",
"..++++++++++..@@@@@@##$$######..",
"..++++++++++..@@@@@@##$$######..",
"..++++++++++..@@@@@@##$$######..",
"..++++++++++..@@@@@@##$$######..",
"..++++++++++..@@@@@@##$$######..",
"..++++++++++..@@@@@@##$$######..",
"..++++++++++..@@@@@@##$$######..",
"..++++++++++..@@@@@@##$$######..",
"..++++++++++..@@@@@@##$$######..",
"..++++++++++..@@@@@@##$$######..",
"..++++++++++..@@@@@@##$$######..",
"..++++++++++..@@@@@@##$$######..",
"..++++++++++..@@@@@@##$$######..",
"..++++++++++..@@@@@@##$$######..",
"..++++++++++..@@@@@@##$$######..",
"..++++++++++..@@@@@@##$$######..",
"..++++++++++..@@@@@@##$$######..",
"..++++++++++..@@@@@@##$$######..",
"..++++++++++..@@@@@@##$$######..",
"..++++++++++..@@@@@@##$$######..",
"..++++++++++..@@@@@@##$$######..",
"..++++++++++..@@@@@@##$$######..",
"..++++++++++..@@@@@@##$$######..",
"..++++++++++..@@@@@@##$$######..",
"..++++++++++..@@@@@@##$$######..",
"..++++++++++..@@@@@@##$$######..",
"..++++++++++..@@@@@@##$$######..",
"..++++++++++..@@@@@@##$$######..",
"..++++++++++..@@@@@@##$$######  ",
"..++++++++++..@@@@@@##$$######  ",
"..++++++++++..@@@@@@##$$######  ",
"..++++++++++..@@@@@@##$$######  ",
"..++++++++++..@@@@@@##$$####    ",
"..++++++++++..@@@@@@##$$####    ",
"..++++++++++..@@@@@@##$$####    ",
"..++++++++++..@@@@@@##$$####    ",
"..++++++++++..@@@@@@##$$##      ",
"..++++++++++..@@@@@@##$$##      ",
"..++++++++++..@@@@@@##$$##      ",
"..++++++++++..@@@@@@##$$##      ",
"..++++++++++..@@@@@@##$$        ",
"..++++++++++..@@@@@@##$$        ",
"..++++++++++..@@@@@@##$$        ",
"..++++++++++..@@@@@@##$$        ",
"..++++++++++..@@@@@@##          ",
"..++++++++++..@@@@@@##          ",
"..++++++++++..@@@@@@##          ",
"..++++++++++..@@@@@@##          ",
"..++++++++++..@@@@@@            ",
"..++++++++++..@@@@@@            ",
"..++++++++++..@@@@@@            ",
"..++++++++++..@@@@@@            ",
"..++++++++++..@@@@              ",
"..++++++++++..@@@@              ",
"..++++++++++..@@@@              ",
"..++++++++++..@@@@              ",
"..++++++++++..@@                ",
"..++++++++++..@@                "};
