/* XPM */
static char * zombie3_xpm[] = {
"32 48 26 1",
" 	c None",
".	c #565972",
"+	c #46465E",
"@	c #D8D0E0",
"#	c #9DA3B7",
"$	c #8B8BAB",
"%	c #3A3A50",
"&	c #B8D040",
"*	c #6C6E85",
"=	c #6B994E",
"-	c #4E6E61",
";	c #568D61",
">	c #82AB4D",
",	c #455C5B",
"'	c #9BC246",
")	c #608552",
"!	c #C09A4C",
"~	c #8D8956",
"{	c #E63F38",
"]	c #FC5C46",
"^	c #B2AECB",
"/	c #4995E3",
"(	c #615B78",
"_	c #4280DD",
":	c #406AC5",
"<	c #B35E3F",
"                                ",
"                                ",
"            ....++++            ",
"            ....++++            ",
"          ..@@@@####++          ",
"          ..@@@@####++          ",
"          ++$$####$$%%          ",
"          ++$$####$$%%          ",
"        %%%%%%....%%%%%%        ",
"        %%%%%%....%%%%%%        ",
"      ..&&&&%%****%%==--..      ",
"      ..&&&&%%****%%==--..      ",
"    ..;;>>==,,....,,;;;;--..    ",
"    ..;;>>==,,....,,;;;;--..    ",
"    ++,,>>>>==;;;;======,,++    ",
"    ++,,>>>>==;;;;======,,++    ",
"    ..==..++++%%%%++++..;;..    ",
"    ..==..++++%%%%++++..;;..    ",
"  ..;;''==&&>>&&>>>>&&=='';;..  ",
"  ..;;''==&&>>&&>>>>&&=='';;..  ",
"  ++====>>>>>>&&>>>>>>====;;++  ",
"  ++====>>>>>>&&>>>>>>====;;++  ",
"  ++>>;;======>>========;;>>++  ",
"  ++>>;;======>>========;;>>++  ",
"  ++>>--;;))));;;;))));;-->>++  ",
"  ++>>--;;))));;;;))));;-->>++  ",
"    %%--;;%%%%>>;;%%%%;;--%%    ",
"    %%--;;%%%%>>;;%%%%;;--%%    ",
"    %%--!!~~--------~~!!--%%    ",
"    %%--!!~~--------~~!!--%%    ",
"  %%{{++................++{{%%  ",
"  %%{{++................++{{%%  ",
"  %%]]]]^^{{{{{{{{{{{{^^]]]]%%  ",
"  %%]]]]^^{{{{{{{{{{{{^^]]]]%%  ",
"++===={{//]]]]]]]]]]]]//{{====++",
"++===={{//]]]]]]]]]]]]//{{====++",
"++==;;%%//]]]]]]]]]]]]//%%;;==++",
"++==;;%%//]]]]]]]]]]]]//%%;;==++",
"  ++%%%%//((__////__((//%%%%++  ",
"  ++%%%%//((__////__((//%%%%++  ",
"      %%////::////::////%%      ",
"      %%////::////::////%%      ",
"      %%////..++++..////%%      ",
"      %%////..++++..////%%      ",
"      %%<<<<%%    %%<<<<%%      ",
"      %%<<<<%%    %%<<<<%%      ",
"        %%%%        %%%%        ",
"        %%%%        %%%%        "};
